<?xml version="1.0" encoding="utf-8"?>
<!-- Generator: Adobe Illustrator 21.1.0, SVG Export Plug-In . SVG Version: 6.00 Build 0)  -->
<svg version="1.1" id="Layer_1" xmlns="http://www.w3.org/2000/svg" xmlns:xlink="http://www.w3.org/1999/xlink" x="0px" y="0px"
	 viewBox="0 0 512 512" style="enable-background:new 0 0 512 512;" xml:space="preserve">
<style type="text/css">
	.st0{fill:#231F20;}
	.st1{fill:#606161;}
	.st2{fill:#EBEBEB;}
	.st3{fill:#030303;}
	.st4{fill:#FFFFFF;}
</style>
<g>
	<polygon class="st0" points="134.3,432.2 107.3,128.6 404.7,128.6 377.6,432.2 255.8,465.9 	"/>
	<polygon class="st1" points="256,440.1 354.4,412.8 377.6,153.4 256,153.4 	"/>
	<polygon class="st2" points="256,266 206.7,266 203.3,227.9 256,227.9 256,190.6 255.9,190.6 162.6,190.6 163.5,200.6 172.7,303.3 
		256,303.3 	"/>
	<polygon class="st2" points="256,362.7 255.8,362.8 214.4,351.6 211.7,321.9 191.6,321.9 174.3,321.9 179.5,380.3 255.8,401.5 
		256,401.5 	"/>
	<g>
		<path class="st3" d="M134.9,46.1h18.9v18.7h17.3V46.1h18.9v56.6h-18.9v-19h-17.3v19h-18.9V46.1L134.9,46.1z"/>
		<path class="st3" d="M215,64.8h-16.7V46.1h52.3v18.8h-16.7v37.8H215L215,64.8L215,64.8z"/>
		<path class="st3" d="M258.9,46.1h19.7L290.7,66l12.1-19.9h19.7v56.6h-18.8V74.6l-13,20.1h-0.3l-13-20.1v28.1h-18.5L258.9,46.1
			L258.9,46.1z"/>
		<path class="st3" d="M332,46.1H351V84h26.6v18.7H332L332,46.1L332,46.1z"/>
	</g>
	<polygon class="st4" points="255.9,266 255.9,303.3 301.7,303.3 297.4,351.5 255.9,362.8 255.9,401.5 332.2,380.3 332.8,374.1 
		341.5,276 342.4,266 332.4,266 	"/>
	<polygon class="st4" points="255.9,190.6 255.9,213.8 255.9,227.8 255.9,227.9 345.7,227.9 345.7,227.9 345.8,227.9 346.6,219.5 
		348.3,200.6 349.2,190.6 	"/>
</g>
</svg>
