<?xml version="1.0" encoding="utf-8"?>
<!-- Generator: Adobe Illustrator 21.1.0, SVG Export Plug-In . SVG Version: 6.00 Build 0)  -->
<svg version="1.1" id="Layer_1" xmlns="http://www.w3.org/2000/svg" xmlns:xlink="http://www.w3.org/1999/xlink" x="0px" y="0px"
	 viewBox="0 0 512 512" style="enable-background:new 0 0 512 512;" xml:space="preserve">
<style type="text/css">
	.st0{fill:#231F20;}
	.st1{fill:#606161;}
	.st2{fill:#171617;}
	.st3{fill:#030303;}
	.st4{fill:#EBEBEB;}
	.st5{fill:#FFFFFF;}
</style>
<g>
	<polygon class="st0" points="134.3,432.3 107.3,128.6 404.7,128.6 377.6,432.2 255.8,466 	"/>
	<polygon class="st1" points="255.8,439.8 354.2,412.5 377.3,153.1 255.8,153.1 	"/>
	<g>
		<polygon class="st2" points="308.9,61.6 284.2,61.6 309.9,89.4 309.9,102.7 257,102.7 257,87.2 282.7,87.2 257,59.3 257,46 
			308.9,46 		"/>
		<path class="st3" d="M247.6,46v56.6h-45.5V84h26.6V46H247.6L247.6,46z"/>
	</g>
	<polygon class="st4" points="255.7,362.4 255.5,362.5 214.1,351.3 211.4,321.6 191.3,321.6 174,321.6 179.2,380 255.5,401.2 
		255.7,401.2 	"/>
	<polygon class="st4" points="260.7,302.9 260.7,265.7 214.9,265.7 220.2,207.3 260.8,206.2 260.7,167.5 186.6,167.5 183.8,194.9 
		175.1,292.9 174.2,302.9 184.2,302.9 	"/>
	<polygon class="st5" points="260.5,206.2 260.6,206.2 301.3,208.6 304.7,247.1 324.9,247.1 342.1,247.1 335.6,175.1 260.6,167.4 
		260.5,167.5 	"/>
	<polyline class="st5" points="338.3,206.3 335.1,167.5 256.5,167.5 256.5,191.6 256.5,206.2 256.5,206.3 338.3,206.3 	"/>
	<polygon class="st5" points="255.6,265.7 255.6,303 301.4,303 297.1,351.2 255.6,362.5 255.6,401.2 331.9,380 332.5,373.8 
		341.2,275.7 342.1,265.7 332.1,265.7 	"/>
	<path class="st5" d="M333.5,204.7"/>
</g>
</svg>
