<?xml version="1.0" encoding="utf-8"?>
<!-- Generator: Adobe Illustrator 21.1.0, SVG Export Plug-In . SVG Version: 6.00 Build 0)  -->
<svg version="1.1" id="Layer_1" xmlns="http://www.w3.org/2000/svg" xmlns:xlink="http://www.w3.org/1999/xlink" x="0px" y="0px"
	 viewBox="0 0 512 512" style="enable-background:new 0 0 512 512;" xml:space="preserve">
<style type="text/css">
	.st0{display:none;fill:#231F20;}
	.st1{display:none;fill:#F9F9FA;}
	.st2{display:none;fill:#606161;}
	.st3{display:none;fill:#675D61;}
	.st4{fill:#171617;}
	.st5{fill:#030303;}
	.st6{fill:#EBEBEB;}
	.st7{fill:#FFFFFF;}
	.st8{fill:#221F1F;}
	.st9{fill:url(#SVGID_1_);}
</style>
<path class="st0" d="M44.9,45h430.9v422H44.9V45z"/>
<rect x="124.6" y="132.9" class="st1" width="254.4" height="246.1"/>
<polygon class="st2" points="261.3,434 383.6,400.1 412.3,78 261.3,78 "/>
<path class="st3" d="M202.1,259.7h38.2l-19.1-74.1L202.1,259.7z M77.5,78v356h366.3V78H77.5z M261.3,340.9l-14-48.1h-51.7l-14,48.1
	h-35.4L196,170.7v-18.6h47.5l56.8,188.8H261.3z M355.4,340.9h-38.2V197.3h38.2V340.9z M336.5,180.1c-10.9,0-19.8-8.8-19.8-19.6
	s8.9-19.6,19.8-19.6s19.8,8.8,19.8,19.6S347.4,180.1,336.5,180.1z"/>
<g>
	<polygon class="st0" points="-446.1,414.3 -473.2,110.6 -175.7,110.6 -202.8,414.2 -324.6,448 	"/>
	<g>
		<polygon class="st4" points="-643.1,358.9 -667.8,358.9 -642.1,386.8 -642.1,400.1 -695,400.1 -695,384.5 -669.3,384.5 
			-695,356.7 -695,343.4 -643.1,343.4 		"/>
		<path class="st5" d="M-704.4,343.4V400h-45.5v-18.7h26.6v-37.9H-704.4L-704.4,343.4z"/>
	</g>
	<polygon class="st6" points="-696.3,659.8 -696.5,659.8 -738,648.6 -740.6,619 -760.8,619 -778,619 -772.8,677.4 -696.5,698.6 
		-696.3,698.5 	"/>
	<polygon class="st6" points="-691.3,600.3 -691.3,563.1 -737.2,563.1 -731.8,504.6 -691.2,503.6 -691.3,464.8 -765.4,464.8 
		-768.2,492.3 -777,590.3 -777.9,600.3 -767.8,600.3 	"/>
	<polygon class="st7" points="-691.6,503.6 -691.4,503.6 -650.7,506 -647.3,544.5 -627.1,544.5 -609.9,544.5 -616.4,472.5 
		-691.4,464.8 -691.6,464.9 	"/>
	<polyline class="st7" points="-613.7,503.7 -616.9,464.8 -695.5,464.8 -695.5,489 -695.5,503.6 -695.5,503.7 -613.7,503.7 	"/>
	<polygon class="st7" points="-696.4,563.1 -696.4,600.3 -650.6,600.3 -654.9,648.6 -696.4,659.8 -696.4,698.6 -620.1,677.4 
		-619.6,671.1 -610.8,573.1 -609.9,563.1 -619.9,563.1 	"/>
	<path class="st7" d="M-618.5,502.1"/>
</g>
<path class="st8" d="M50.9,45h422v422h-422V45z"/>
<linearGradient id="SVGID_1_" gradientUnits="userSpaceOnUse" x1="87.9079" y1="255.9998" x2="443.0633" y2="255.9998">
	<stop  offset="0" style="stop-color:#FFFFFF"/>
	<stop  offset="1" style="stop-color:#000000"/>
</linearGradient>
<path class="st9" d="M87.9,82.1h355.2v347.8H87.9V82.1z"/>
<path class="st7" d="M321.8,236.7c-11.6,0-15.6,5.9-15.6,10.7c0,5.3,2.6,9,18.2,17.1c23.1,11.2,30.3,21.9,30.3,37.7
	c0,23.6-18,36.2-42.3,36.2c-12.8,0-23.8-2.6-30.2-6.3c-1.1-0.4-1.2-1.2-1.2-2.4v-21.7c0-1.5,0.7-1.9,1.7-1.2
	c9.3,6,19.9,8.7,29.6,8.7c11.6,0,16.5-4.9,16.5-11.5c0-5.3-3.4-10-18.2-17.6c-20.9-10-29.6-20.2-29.6-37.1c0-19,14.8-34.8,40.6-34.8
	c12.5,0,21.3,1.9,26.1,4c0.2,0.1,0.3,0.2,0.4,0.2c1,0.7,1.2,1.8,1.2,2.8v20.2c0,1-0.5,1.6-1.5,1.6c-0.4,0-0.7-0.2-1.1-0.3
	C340.6,239.1,331.2,236.7,321.8,236.7L321.8,236.7z M195.2,252.1c0,1.2,1,2.2,2.1,2.3c2.6,0.2,5.2,0.2,9.7,0.2
	c17.2,0,33.4-6,33.4-29.4c0-18.7-11.6-28.1-31.2-28.1c-4.6,0-9,0.2-12,0.3c-1.2,0.1-2.1,1.1-2.1,2.3L195.2,252.1L195.2,252.1z
	 M169,176.1c0-1.1,2.1-1.7,3.2-1.7c9.4-0.4,23.4-0.7,38-0.7c40.8,0,56.7,22.3,56.7,50.9c0,37.4-27.1,53.4-60.3,53.4
	c-4.4,0-6.5-0.2-9.1-0.2c-1.3,0-2.4,1-2.4,2.3v54.2c0,1.2-0.4,1.7-1.7,1.7h-22.5c-1.2,0-1.7-0.4-1.7-1.7L169,176.1L169,176.1z"/>
</svg>
