<?xml version="1.0" encoding="utf-8"?>
<!-- Generator: Adobe Illustrator 21.1.0, SVG Export Plug-In . SVG Version: 6.00 Build 0)  -->
<svg version="1.1" id="Layer_1" xmlns="http://www.w3.org/2000/svg" xmlns:xlink="http://www.w3.org/1999/xlink" x="0px" y="0px"
	 viewBox="0 0 260 260" style="enable-background:new 0 0 260 260;" xml:space="preserve">
<style type="text/css">
	.st0{fill:#3292A6;}
	.st1{font-family:'MyriadPro-Regular';}
	.st2{font-size:177px;}
</style>
<g>
	<path d="M207.6,49.9h-3.3c-8.7,0-16.5,2.5-23.9,6.8V25.1c0-3.6-2.7-6.6-6.3-6.6H14.6c-3.6,0-6.9,3-6.9,6.6v209.8
		c0,3.6,3.2,6.6,6.9,6.6H174c3.6,0,6.3-3,6.3-6.6v-31.7c7.4,4.4,15.2,7,23.9,7h3.3c11.9,0,22.9-4.7,31.5-13.2
		c8.5-8.5,13.1-19.8,13.1-31.6V93.9C252.2,69.6,232.4,49.9,207.6,49.9z M21,31.7h146.2v196.6H21V31.7z M239,165.2
		c0,17.2-14.2,31.7-31.4,31.7h-3.3c-9.5,0-18.1-4.3-23.9-11.1V74c5.8-6.6,14.4-10.9,23.9-10.9h3.3c17.5,0,31.4,13.8,31.4,30.8V165.2
		z"/>
	<path class="st0" d="M167.2,31.7H21v196.6h146.2V31.7z M137.2,166.1c-9.7,9.8-22.6,15.2-36.4,15.2c-28.2,0-51.2-23-51.2-51.2
		s23-51.2,51.2-51.2c13.7,0,26.5,5.3,36.2,15c2.6,2.6,2.6,6.8,0,9.3c-2.6,2.6-6.8,2.6-9.3,0C120.5,96,111,92,100.8,92
		c-20.9,0-38,17-38,38s17,38,38,38c10.2,0,19.8-4,27-11.2c2.6-2.6,6.8-2.6,9.3,0C139.7,159.3,139.7,163.5,137.2,166.1z"/>
	<path d="M127.8,156.7c-7.2,7.3-16.8,11.2-27,11.2c-20.9,0-38-17-38-38s17-38,38-38c10.1,0,19.7,4,26.9,11.1c2.6,2.6,6.8,2.6,9.3,0
		c2.6-2.6,2.6-6.8,0-9.3c-9.7-9.7-22.5-15-36.2-15c-28.2,0-51.2,23-51.2,51.2s23,51.2,51.2,51.2c13.8,0,26.7-5.4,36.4-15.2
		c2.6-2.6,2.6-6.8,0-9.3C134.5,154.1,130.4,154.2,127.8,156.7z"/>
</g>
<text transform="matrix(1 0 0 1 11.1997 180.475)" class="st1 st2">[</text>
<text transform="matrix(1 0 0 1 125.5327 180.475)" class="st1 st2">]</text>
</svg>
