<?xml version="1.0" encoding="utf-8"?>
<!-- Generator: Adobe Illustrator 21.1.0, SVG Export Plug-In . SVG Version: 6.00 Build 0)  -->
<svg version="1.1" id="Layer_1" xmlns="http://www.w3.org/2000/svg" xmlns:xlink="http://www.w3.org/1999/xlink" x="0px" y="0px"
	 viewBox="0 0 512 512" style="enable-background:new 0 0 512 512;" xml:space="preserve">
<style type="text/css">
	.st0{fill:#171617;}
	.st1{fill:#231F20;}
	.st2{fill:#606161;}
	.st3{fill:#FFFFFF;}
	.st4{fill:#EBEBEB;}
</style>
<g>
	<g>
		<polygon class="st0" points="340.4,61.6 315.7,61.6 341.4,89.5 341.4,102.7 288.5,102.7 288.5,87.2 314.1,87.2 288.5,59.3 
			288.5,46.1 340.4,46.1 		"/>
		<polygon class="st0" points="278,61.6 253.3,61.6 279,89.5 279,102.7 226.1,102.7 226.1,87.2 251.8,87.2 226.1,59.3 226.1,46.1 
			278,46.1 		"/>
		<polygon class="st0" points="216.2,62.2 189.6,62.2 189.6,86.6 216.2,86.6 216.2,102.7 170.6,102.7 170.6,46.1 216.2,46.1 		"/>
	</g>
	<polygon class="st1" points="134.3,432.2 107.3,128.6 404.7,128.6 377.6,432.2 255.8,465.9 	"/>
	<polygon class="st2" points="256,440.1 354.4,412.8 377.6,153.4 256,153.4 	"/>
	<g>
		<polygon class="st3" points="256,263.4 305.3,263.4 308.7,225.3 256,225.3 256,188.1 256.1,188.1 349.4,188.1 348.5,198 
			339.3,300.7 256,300.7 		"/>
		<polygon class="st4" points="256.2,360.1 256.1,360.2 214.6,349 211.9,319.3 191.8,319.3 174.6,319.3 179.8,377.7 256.1,398.9 
			256.2,398.9 		"/>
		<polygon class="st3" points="302.1,299.1 297.6,349 256.1,360.2 256.1,398.9 332.4,377.7 333,371.5 339.5,299.1 		"/>
		<polygon class="st4" points="256.1,188.1 256.1,211.2 256.1,225.2 256.1,225.3 166.3,225.3 166.3,225.3 166.2,225.3 165.4,216.9 
			163.7,198 162.8,188.1 		"/>
		<polygon class="st4" points="256,263.4 256,286.6 256,300.6 256,300.7 215.2,300.7 215.2,300.7 215.1,300.7 214.3,292.3 
			212.6,273.4 211.7,263.4 		"/>
	</g>
</g>
</svg>
