<?xml version="1.0" encoding="utf-8"?>
<!-- Generator: Adobe Illustrator 21.1.0, SVG Export Plug-In . SVG Version: 6.00 Build 0)  -->
<svg version="1.1" id="Layer_1" xmlns="http://www.w3.org/2000/svg" xmlns:xlink="http://www.w3.org/1999/xlink" x="0px" y="0px"
	 viewBox="0 0 512 512" style="enable-background:new 0 0 512 512;" xml:space="preserve">
<style type="text/css">
	.st0{display:none;fill:#606161;}
	.st1{fill:#010101;}
</style>
<polygon class="st0" points="261.3,434 383.6,400.1 412.3,78 261.3,78 "/>
<path class="st1" d="M459.2,237.2L274.8,52.8c-10.6-10.6-27.8-10.6-38.5,0L198,91.1l48.6,48.6c11.3-3.8,24.2-1.3,33.2,7.7
	c9,9.1,11.6,22.1,7.7,33.4l46.8,46.8c11.3-3.9,24.4-1.4,33.4,7.7c12.6,12.6,12.6,33.1,0,45.8c-12.6,12.7-33.1,12.7-45.8,0
	c-9.5-9.5-11.9-23.5-7-35.2l-43.7-43.7l0,114.9c3.1,1.5,6,3.6,8.6,6.1c12.6,12.6,12.6,33.1,0,45.8c-12.6,12.6-33.1,12.6-45.8,0
	c-12.6-12.7-12.6-33.1,0-45.8c3.1-3.1,6.7-5.5,10.6-7.1v-116c-3.9-1.6-7.5-3.9-10.6-7.1c-9.6-9.6-11.9-23.6-7-35.4l-47.9-47.9
	L52.8,236.3c-10.6,10.6-10.6,27.9,0,38.5l184.4,184.4c10.6,10.6,27.8,10.6,38.5,0l183.6-183.6C469.9,265,469.9,247.8,459.2,237.2z"
	/>
</svg>
