<?xml version="1.0" encoding="utf-8"?>
<!-- Generator: Adobe Illustrator 21.1.0, SVG Export Plug-In . SVG Version: 6.00 Build 0)  -->
<svg version="1.1" id="Layer_1" xmlns="http://www.w3.org/2000/svg" xmlns:xlink="http://www.w3.org/1999/xlink" x="0px" y="0px"
	 viewBox="0 0 512 512" style="enable-background:new 0 0 512 512;" xml:space="preserve">
<style type="text/css">
	.st0{display:none;fill:#606161;}
	.st1{fill:url(#SVGID_1_);}
	.st2{fill:#231F20;}
	.st3{fill:#606161;}
	.st4{fill:#171617;}
	.st5{fill:#030303;}
	.st6{fill:#EBEBEB;}
	.st7{fill:#FFFFFF;}
</style>
<polygon class="st0" points="261.3,434 383.6,400.1 412.3,78 261.3,78 "/>
<linearGradient id="SVGID_1_" gradientUnits="userSpaceOnUse" x1="44.7998" y1="256" x2="467.2002" y2="256">
	<stop  offset="0" style="stop-color:#FFFFFF"/>
	<stop  offset="1" style="stop-color:#000000"/>
</linearGradient>
<path class="st1" d="M459.2,237.2L274.8,52.8c-10.6-10.6-27.8-10.6-38.5,0L198,91.1l48.6,48.6c11.3-3.8,24.2-1.3,33.2,7.7
	c9,9.1,11.6,22.1,7.7,33.4l46.8,46.8c11.3-3.9,24.4-1.4,33.4,7.7c12.6,12.6,12.6,33.1,0,45.8c-12.6,12.7-33.1,12.7-45.8,0
	c-9.5-9.5-11.9-23.5-7-35.2l-43.7-43.7l0,114.9c3.1,1.5,6,3.6,8.6,6.1c12.6,12.6,12.6,33.1,0,45.8c-12.6,12.6-33.1,12.6-45.8,0
	c-12.6-12.7-12.6-33.1,0-45.8c3.1-3.1,6.7-5.5,10.6-7.1v-116c-3.9-1.6-7.5-3.9-10.6-7.1c-9.6-9.6-11.9-23.6-7-35.4l-47.9-47.9
	L52.8,236.3c-10.6,10.6-10.6,27.9,0,38.5l184.4,184.4c10.6,10.6,27.8,10.6,38.5,0l183.6-183.6C469.9,265,469.9,247.8,459.2,237.2z"
	/>
<g>
	<polygon class="st2" points="-279.4,315.4 -306.5,11.8 -9,11.8 -36.1,315.4 -157.9,349.2 	"/>
	<polygon class="st3" points="-158,323 -59.6,295.7 -36.4,36.3 -158,36.3 	"/>
	<g>
		<polygon class="st4" points="-104.8,-55.2 -129.5,-55.2 -103.8,-27.4 -103.8,-14.1 -156.7,-14.1 -156.7,-29.7 -131,-29.7 
			-156.7,-57.5 -156.7,-70.8 -104.8,-70.8 		"/>
		<path class="st5" d="M-166.1-70.8v56.6h-45.5v-18.7h26.6v-37.9H-166.1L-166.1-70.8z"/>
	</g>
	<polygon class="st6" points="-158.1,245.6 -158.2,245.7 -199.7,234.5 -202.4,204.8 -222.5,204.8 -239.7,204.8 -234.5,263.2 
		-158.2,284.4 -158.1,284.4 	"/>
	<polygon class="st6" points="-153,186.1 -153,148.9 -198.9,148.9 -193.5,90.4 -152.9,89.4 -153,50.6 -227.2,50.6 -229.9,78.1 
		-238.7,176.1 -239.6,186.1 -229.6,186.1 	"/>
	<polygon class="st7" points="-153.3,89.4 -153.1,89.4 -112.5,91.8 -109,130.3 -88.9,130.3 -71.6,130.3 -78.1,58.3 -153.1,50.6 
		-153.3,50.7 	"/>
	<polyline class="st7" points="-75.5,89.5 -78.7,50.6 -157.3,50.6 -157.3,74.8 -157.3,89.4 -157.3,89.5 -75.5,89.5 	"/>
	<polygon class="st7" points="-158.2,148.9 -158.2,186.1 -112.3,186.1 -116.7,234.4 -158.2,245.6 -158.2,284.4 -81.9,263.2 
		-81.3,256.9 -72.5,158.9 -71.6,148.9 -81.7,148.9 	"/>
	<path class="st7" d="M-80.3,87.9"/>
</g>
</svg>
