<?xml version="1.0" encoding="utf-8"?>
<!-- Generator: Adobe Illustrator 21.1.0, SVG Export Plug-In . SVG Version: 6.00 Build 0)  -->
<svg version="1.1" id="Layer_1" xmlns="http://www.w3.org/2000/svg" xmlns:xlink="http://www.w3.org/1999/xlink" x="0px" y="0px"
	 viewBox="0 0 512 512" style="enable-background:new 0 0 512 512;" xml:space="preserve">
<style type="text/css">
	.st0{fill:#231F20;}
	.st1{fill:#F9F9FA;}
	.st2{display:none;fill:#606161;}
	.st3{fill:#675D61;}
	.st4{fill:#FFFFFF;}
</style>
<path class="st0" d="M44.9,45h430.9V467H44.9V45z"/>
<rect x="124.6" y="132.9" class="st1" width="254.4" height="246.1"/>
<polygon class="st2" points="261.3,434 383.6,400.1 412.3,78 261.3,78 "/>
<path class="st3" d="M202.1,259.7h38.2l-19.1-74.1L202.1,259.7z M77.5,78V434h366.3V78H77.5z M261.3,340.9l-14-48.1h-51.7l-14,48.1
	h-35.4l49.8-170.2v-18.6h47.5l56.8,188.8H261.3z M355.4,340.9h-38.2V197.3h38.2V340.9z M336.5,180.1c-10.9,0-19.8-8.8-19.8-19.6
	c0-10.8,8.9-19.6,19.8-19.6s19.8,8.8,19.8,19.6C356.3,171.3,347.4,180.1,336.5,180.1z"/>
<rect x="128" y="127.7" class="st3" width="265.3" height="265.3"/>
<path class="st4" d="M328.7,232.6c-14.1,0-18.9,7.1-18.9,13c0,6.4,3.2,10.9,22.1,20.7c28,13.6,36.8,26.6,36.8,45.7
	c0,28.6-21.8,43.9-51.3,43.9c-15.5,0-28.9-3.2-36.6-7.7c-1.3-0.5-1.4-1.4-1.4-2.9v-26.3c0-1.8,0.9-2.3,2.1-1.4
	c11.3,7.3,24.1,10.5,35.9,10.5c14.1,0,20-5.9,20-13.9c0-6.4-4.1-12.1-22.1-21.4c-25.4-12.1-35.9-24.5-35.9-45
	c0-23,18-42.2,49.3-42.2c15.2,0,25.8,2.3,31.7,4.9c0.2,0.1,0.4,0.2,0.5,0.3c1.2,0.9,1.5,2.2,1.5,3.4v24.5c0,1.2-0.6,2-1.8,1.9
	c-0.5,0-0.9-0.2-1.3-0.4C351.5,235.5,340.1,232.6,328.7,232.6L328.7,232.6z M175.1,251.3c0,1.5,1.2,2.7,2.6,2.8
	c3.1,0.2,6.3,0.2,11.8,0.2c20.9,0,40.5-7.3,40.5-35.7c0-22.7-14.1-34.1-37.9-34.1c-5.6,0-10.9,0.2-14.5,0.4
	c-1.5,0.1-2.6,1.3-2.6,2.8V251.3z M143.3,159c0-1.3,2.5-2.1,3.9-2.1c11.4-0.5,28.4-0.9,46.1-0.9c49.5,0,68.8,27.1,68.8,61.8
	c0,45.4-32.9,64.8-73.2,64.8c-5.3,0-7.9-0.2-11.1-0.3c-1.6,0-2.9,1.2-2.9,2.8v65.8c0,1.4-0.5,2.1-2.1,2.1h-27.3
	c-1.4,0-2.1-0.5-2.1-2.1L143.3,159L143.3,159z"/>
</svg>
